<svg xmlns="http://www.w3.org/2000/svg" width="1920" height="288" viewBox="0 0 1920 288">
  <defs>
    <linearGradient id="bgGradient" x1="0%" y1="0%" x2="0%" y2="100%">
      <stop offset="0%" style="stop-color:#0a0a1a"/>
      <stop offset="100%" style="stop-color:#1a1a3a"/>
    </linearGradient>
    <linearGradient id="aiGradient" x1="0%" y1="0%" x2="100%" y2="100%">
      <stop offset="0%" style="stop-color:#4facfe"/>
      <stop offset="100%" style="stop-color:#00f2fe"/>
    </linearGradient>
    <filter id="glow">
      <feGaussianBlur stdDeviation="3" result="coloredBlur"/>
      <feMerge>
        <feMergeNode in="coloredBlur"/>
        <feMergeNode in="SourceGraphic"/>
      </feMerge>
    </filter>
  </defs>
  
  <rect width="1920" height="288" fill="url(#bgGradient)"/>
  
  <g transform="translate(400, 144)">
    <rect x="-80" y="-60" width="160" height="120" rx="10" fill="#1a3a5a" stroke="#4facfe" stroke-width="2"/>
    <rect x="-60" y="-40" width="120" height="80" rx="5" fill="#0d2840"/>
    
    <circle cx="-30" cy="-10" r="12" fill="#4facfe"/>
    <circle cx="-30" cy="-10" r="6" fill="#00f2fe"/>
    
    <circle cx="0" cy="-10" r="12" fill="#4facfe"/>
    <circle cx="0" cy="-10" r="6" fill="#00f2fe"/>
    
    <circle cx="30" cy="-10" r="12" fill="#4facfe"/>
    <circle cx="30" cy="-10" r="6" fill="#00f2fe"/>
    
    <circle cx="-15" cy="20" r="12" fill="#4facfe"/>
    <circle cx="-15" cy="20" r="6" fill="#00f2fe"/>
    
    <circle cx="15" cy="20" r="12" fill="#4facfe"/>
    <circle cx="15" cy="20" r="6" fill="#00f2fe"/>
    
    <line x1="-30" y1="-10" x2="0" y2="-10" stroke="#4facfe" stroke-width="2"/>
    <line x1="0" y1="-10" x2="30" y2="-10" stroke="#4facfe" stroke-width="2"/>
    <line x1="-30" y1="-10" x2="-15" y2="20" stroke="#4facfe" stroke-width="2"/>
    <line x1="0" y1="-10" x2="-15" y2="20" stroke="#4facfe" stroke-width="2"/>
    <line x1="0" y1="-10" x2="15" y2="20" stroke="#4facfe" stroke-width="2"/>
    <line x1="30" y1="-10" x2="15" y2="20" stroke="#4facfe" stroke-width="2"/>
    
    <text x="0" y="60" text-anchor="middle" fill="#4facfe" font-size="16" font-family="Arial">AI Neural Network</text>
  </g>
  
  <g transform="translate(960, 144)">
    <polygon points="0,-80 69,-40 69,40 0,80 -69,40 -69,-40" fill="none" stroke="#00f2fe" stroke-width="3"/>
    <polygon points="0,-60 52,-30 52,30 0,60 -52,30 -52,-30" fill="none" stroke="#4facfe" stroke-width="2"/>
    
    <circle cx="0" cy="0" r="35" fill="none" stroke="#00f2fe" stroke-width="2"/>
    <circle cx="0" cy="0" r="20" fill="none" stroke="#4facfe" stroke-width="1.5"/>
    <circle cx="0" cy="0" r="8" fill="#00f2fe" filter="url(#glow)"/>
    
    <circle cx="-15" cy="-25" r="8" fill="#4facfe"/>
    <circle cx="15" cy="-25" r="8" fill="#4facfe"/>
    <circle cx="-25" cy="5" r="6" fill="#4facfe"/>
    <circle cx="25" cy="5" r="6" fill="#4facfe"/>
    <circle cx="-15" cy="25" r="6" fill="#4facfe"/>
    <circle cx="15" cy="25" r="6" fill="#4facfe"/>
    
    <text x="0" y="120" text-anchor="middle" fill="#00f2fe" font-size="20" font-family="Arial" font-weight="bold">AGENTIC AI</text>
    <text x="0" y="145" text-anchor="middle" fill="#4facfe" font-size="14" font-family="Arial">Smart Manufacturing Hub</text>
  </g>
  
  <g transform="translate(1520, 144)">
    <rect x="-70" y="-70" width="140" height="140" rx="8" fill="#1a3a5a" stroke="#4facfe" stroke-width="2"/>
    
    <rect x="-50" y="-40" width="40" height="30" rx="3" fill="#0d2840" stroke="#4facfe" stroke-width="1"/>
    <rect x="-40" y="-30" width="20" height="10" fill="#4facfe"/>
    
    <rect x="10" y="-40" width="40" height="30" rx="3" fill="#0d2840" stroke="#4facfe" stroke-width="1"/>
    <circle cx="20" cy="-25" r="5" fill="#4facfe"/>
    <circle cx="35" cy="-25" r="5" fill="#4facfe"/>
    <circle cx="20" cy="-15" r="5" fill="#4facfe"/>
    <circle cx="35" cy="-15" r="5" fill="#4facfe"/>
    
    <rect x="-50" y="10" width="40" height="30" rx="3" fill="#0d2840" stroke="#4facfe" stroke-width="1"/>
    <circle cx="-30" cy="25" r="8" fill="#4facfe"/>
    
    <rect x="10" y="10" width="40" height="30" rx="3" fill="#0d2840" stroke="#4facfe" stroke-width="1"/>
    <line x1="20" y1="25" x2="30" y2="25" stroke="#4facfe" stroke-width="2"/>
    <line x1="20" y1="35" x2="40" y2="35" stroke="#4facfe" stroke-width="2"/>
    
    <text x="0" y="95" text-anchor="middle" fill="#4facfe" font-size="16" font-family="Arial">Factory Control</text>
  </g>
  
  <line x1="560" y1="144" x2="800" y2="144" stroke="#4facfe" stroke-width="2" stroke-dasharray="10,5"/>
  <circle cx="560" cy="144" r="6" fill="#4facfe"/>
  <circle cx="800" cy="144" r="6" fill="#4facfe"/>
  
  <line x1="1120" y1="144" x2="1360" y2="144" stroke="#00f2fe" stroke-width="2" stroke-dasharray="10,5"/>
  <circle cx="1120" cy="144" r="6" fill="#00f2fe"/>
  <circle cx="1360" cy="144" r="6" fill="#00f2fe"/>
  
  <circle cx="100" cy="70" r="2" fill="#4facfe" opacity="0.5">
    <animate attributeName="opacity" values="0.5;1;0.5" dur="2s" repeatCount="indefinite"/>
  </circle>
  <circle cx="1820" cy="218" r="3" fill="#00f2fe" opacity="0.5">
    <animate attributeName="opacity" values="0.5;1;0.5" dur="3s" repeatCount="indefinite"/>
  </circle>
  <circle cx="1600" cy="50" r="2" fill="#4facfe" opacity="0.5">
    <animate attributeName="opacity" values="0.5;1;0.5" dur="2.5s" repeatCount="indefinite"/>
  </circle>
  
  <rect x="200" y="240" width="30" height="8" rx="4" fill="#4facfe" opacity="0.6"/>
  <rect x="250" y="240" width="20" height="8" rx="4" fill="#4facfe" opacity="0.4"/>
  <rect x="290" y="240" width="40" height="8" rx="4" fill="#4facfe" opacity="0.5"/>
  
  <rect x="1600" y="240" width="25" height="8" rx="4" fill="#00f2fe" opacity="0.6"/>
  <rect x="1645" y="240" width="35" height="8" rx="4" fill="#00f2fe" opacity="0.4"/>
  <rect x="1700" y="240" width="20" height="8" rx="4" fill="#00f2fe" opacity="0.5"/>
</svg>